<svg version="1.1" id="Layer_1" xmlns="http://www.w3.org/2000/svg" xmlns:xlink="http://www.w3.org/1999/xlink" x="0px" y="0px"
	 width="100%" viewBox="0 0 512 512" enable-background="new 0 0 512 512" xml:space="preserve">
<path fill="#000000" opacity="1.000000" stroke="none" 
	d="
M513.000000,203.000000 
	C513.000000,306.641479 513.000000,409.782959 513.000000,512.962219 
	C342.400177,512.962219 171.800339,512.962219 1.100256,512.962219 
	C1.100256,342.441895 1.100256,171.883682 1.100256,1.162741 
	C171.666534,1.162741 342.333252,1.162741 513.000000,1.162741 
	C513.000000,68.199615 513.000000,135.349808 513.000000,203.000000 
M35.032810,228.909027 
	C34.983559,261.925568 34.934311,294.942139 34.021309,327.992828 
	C23.321560,328.017731 18.601944,331.085815 16.912300,341.748566 
	C15.605042,349.998199 16.339756,358.571411 16.027988,367.926208 
	C16.688553,376.719513 16.385418,385.720825 18.228369,394.258911 
	C21.231337,408.171204 29.418926,418.932922 42.295994,426.724396 
	C52.586803,432.597107 63.702721,434.106873 75.438957,434.092590 
	C198.575638,433.942719 321.712616,434.034149 444.849335,433.886993 
	C450.315277,433.880463 456.029114,432.959625 461.201172,431.206726 
	C484.505127,423.308655 497.165894,404.603119 497.942322,379.191132 
	C498.283081,368.037567 498.150543,356.862183 497.947266,345.701904 
	C497.808655,338.090637 495.536407,331.441650 487.340546,328.862366 
	C484.771576,328.053894 481.987152,327.930084 478.996002,327.443176 
	C478.996002,325.391602 478.996002,323.416382 478.996002,321.441162 
	C478.996002,247.792313 479.003021,174.143463 478.956177,100.494637 
	C478.954987,98.626625 478.361938,96.758987 478.007324,94.068291 
	C477.931580,86.833435 471.894043,80.079170 464.992218,80.045784 
	C447.997437,79.963570 431.001556,80.110878 413.076294,80.028732 
	C397.717255,80.074646 382.358215,80.120560 366.070862,80.028755 
	C352.048706,80.074257 338.026520,80.119759 323.074677,80.028030 
	C314.714905,80.074371 306.355133,80.120720 297.067566,80.029587 
	C288.376587,80.075401 279.685608,80.121216 270.066956,80.029404 
	C260.043854,80.075134 250.020752,80.120857 239.069534,80.029213 
	C231.703751,80.076668 224.337952,80.124115 216.047028,80.036507 
	C201.696884,80.079697 187.346725,80.122879 172.068451,80.029045 
	C164.711288,80.074600 157.354126,80.120155 149.069626,80.027519 
	C143.040253,80.075386 137.010880,80.123245 130.055542,80.033234 
	C122.035957,80.077362 114.016373,80.121490 105.072479,80.025154 
	C100.046692,80.072044 95.020897,80.118935 89.067810,80.024879 
	C75.914932,80.006233 62.761997,79.957436 49.609203,79.982750 
	C43.790268,79.993950 36.405582,85.699211 36.037632,90.779037 
	C35.526535,97.835022 35.436478,104.921501 35.036076,112.504028 
	C35.080246,112.673515 35.124420,112.843010 35.030613,113.938210 
	C35.078087,151.951630 35.125561,189.965057 35.032810,228.909027 
z"/>
<path fill="#0117FF" opacity="1.000000" stroke="none" 
	d="
M478.044861,94.891182 
	C478.361938,96.758987 478.954987,98.626625 478.956177,100.494637 
	C479.003021,174.143463 478.996002,247.792313 478.996002,321.441162 
	C478.996002,323.416382 478.996002,325.391602 478.996002,327.443176 
	C481.987152,327.930084 484.771576,328.053894 487.340546,328.862366 
	C495.536407,331.441650 497.808655,338.090637 497.947266,345.701904 
	C498.150543,356.862183 498.283081,368.037567 497.942322,379.191132 
	C497.165894,404.603119 484.505127,423.308655 461.201172,431.206726 
	C456.029114,432.959625 450.315277,433.880463 444.849335,433.886993 
	C321.712616,434.034149 198.575638,433.942719 75.438957,434.092590 
	C63.702721,434.106873 52.586803,432.597107 42.298016,426.115723 
	C44.889030,423.772980 47.391609,421.889893 50.081703,420.330170 
	C63.039551,412.817017 75.271805,403.184875 91.816711,405.885437 
	C92.759254,406.039276 93.933708,404.772339 95.464355,404.097412 
	C98.093750,404.018768 100.259026,404.001221 102.424301,404.001190 
	C216.520859,403.999878 330.617432,404.001190 444.713989,403.998108 
	C455.844208,403.997803 465.174377,397.219086 466.827545,386.371246 
	C468.229004,377.175049 467.946869,367.722198 468.419922,358.177917 
	C415.128815,358.177917 362.870728,358.177917 310.640442,358.177917 
	C306.183472,370.111145 303.454987,372.000000 290.754242,372.000000 
	C268.268066,372.000000 245.780441,371.851746 223.296341,372.068237 
	C213.405334,372.163483 207.191406,371.054199 203.305511,357.833374 
	C195.291061,357.833374 187.145508,357.833374 178.831512,357.492920 
	C174.573929,356.409668 170.484772,355.666870 166.395630,354.924072 
	C166.344986,354.433502 166.294342,353.942932 166.243698,353.452332 
	C167.552643,352.606659 168.827835,351.702484 170.175934,350.924683 
	C179.772369,345.387970 189.473114,340.023254 198.922058,334.246246 
	C201.056030,332.941589 202.330017,330.230347 204.464050,328.097321 
	C286.173279,328.028076 367.418335,328.028076 449.000000,328.028076 
	C449.000000,314.069214 448.985107,300.766632 449.002899,287.464111 
	C449.049896,252.309555 449.111084,217.155014 449.505676,181.929810 
	C457.767365,177.326187 465.583954,172.590897 473.661682,168.353577 
	C477.202881,166.496002 478.092621,164.095200 478.062866,160.389023 
	C477.914703,141.925110 477.983551,123.459450 477.979950,104.537643 
	C478.004242,101.017654 478.024567,97.954422 478.044861,94.891182 
z"/>
<path fill="#0817FF" opacity="1.000000" stroke="none" 
	d="
M203.999878,328.166565 
	C202.330017,330.230347 201.056030,332.941589 198.922058,334.246246 
	C189.473114,340.023254 179.772369,345.387970 170.175934,350.924683 
	C168.827835,351.702484 167.552643,352.606659 166.243698,353.452332 
	C166.294342,353.942932 166.344986,354.433502 166.395630,354.924072 
	C170.484772,355.666870 174.573929,356.409668 178.367340,357.562103 
	C134.178726,357.971710 90.285873,357.971710 46.007908,357.971710 
	C46.007908,366.691406 45.398865,374.871948 46.151539,382.925262 
	C47.263206,394.819702 57.650867,404.941650 69.546440,404.123383 
	C77.990089,403.542572 86.512802,404.111115 95.000229,404.166656 
	C93.933708,404.772339 92.759254,406.039276 91.816711,405.885437 
	C75.271805,403.184875 63.039551,412.817017 50.081703,420.330170 
	C47.391609,421.889893 44.889030,423.772980 42.125275,425.806885 
	C29.418926,418.932922 21.231337,408.171204 18.228369,394.258911 
	C16.385418,385.720825 16.688553,376.719513 16.443573,367.534210 
	C19.022993,366.796112 21.510460,367.023926 23.300285,366.014587 
	C40.064323,356.561371 56.765339,346.992157 73.350426,337.228577 
	C77.802162,334.607849 81.795517,331.208496 86.463509,328.097198 
	C125.951775,328.074066 164.975830,328.120331 203.999878,328.166565 
z"/>
<path fill="#1217FF" opacity="1.000000" stroke="none" 
	d="
M478.026093,94.479736 
	C478.024567,97.954422 478.004242,101.017654 477.630157,104.603989 
	C475.238190,106.163826 473.183105,107.168846 471.164795,108.242981 
	C463.825439,112.148956 456.498383,116.078056 449.097870,119.544617 
	C449.029053,116.159111 449.029053,113.227417 449.029053,109.833923 
	C422.905823,109.833923 397.455383,109.833923 372.010254,109.463043 
	C373.033295,107.551590 373.699493,105.432877 375.126404,104.565346 
	C383.633759,99.393051 392.407349,94.658035 400.904236,89.469452 
	C405.464722,86.684631 409.650970,83.287003 414.006104,80.165894 
	C431.001556,80.110878 447.997437,79.963570 464.992218,80.045784 
	C471.894043,80.079170 477.931580,86.833435 478.026093,94.479736 
z"/>
<path fill="#1217FF" opacity="1.000000" stroke="none" 
	d="
M85.999298,328.166565 
	C81.795517,331.208496 77.802162,334.607849 73.350426,337.228577 
	C56.765339,346.992157 40.064323,356.561371 23.300285,366.014587 
	C21.510460,367.023926 19.022993,366.796112 16.512924,367.071503 
	C16.339756,358.571411 15.605042,349.998199 16.912300,341.748566 
	C18.601944,331.085815 23.321560,328.017731 34.713921,327.656006 
	C35.617897,320.539673 35.829254,313.760132 36.409752,306.966553 
	C39.015644,305.970490 41.304195,305.090607 43.479664,303.987701 
	C50.619606,300.367859 57.718483,296.667053 64.902901,293.461548 
	C64.972656,305.174591 64.972656,316.423401 64.972656,328.166595 
	C72.416634,328.166595 79.207970,328.166595 85.999298,328.166565 
z"/>
<path fill="#2117FF" opacity="1.000000" stroke="none" 
	d="
M413.541199,80.097305 
	C409.650970,83.287003 405.464722,86.684631 400.904236,89.469452 
	C392.407349,94.658035 383.633759,99.393051 375.126404,104.565346 
	C373.699493,105.432877 373.033295,107.551590 371.545380,109.531662 
	C355.049774,109.925194 339.024384,109.879242 323.075500,109.505516 
	C324.496033,107.763596 325.608978,105.962067 327.222443,104.999687 
	C336.060486,99.728088 345.111115,94.810112 353.902924,89.465034 
	C358.466095,86.690796 362.646088,83.286270 366.999176,80.166473 
	C382.358215,80.120560 397.717255,80.074646 413.541199,80.097305 
z"/>
<path fill="#7416FF" opacity="1.000000" stroke="none" 
	d="
M172.996582,80.166061 
	C187.346725,80.122879 201.696884,80.079697 216.432877,80.430161 
	C216.036469,81.627312 215.385437,82.656059 214.451935,83.199936 
	C203.462738,89.602402 192.357895,95.809990 181.454086,102.353165 
	C178.030884,104.407364 175.118240,107.312370 171.510498,109.895561 
	C156.696899,109.919624 142.344711,109.876076 128.071487,109.503792 
	C129.135803,108.109444 129.937057,106.729965 131.135208,106.027176 
	C142.120956,99.583344 153.229324,93.347313 164.176285,86.839378 
	C167.325714,84.967049 170.067764,82.409470 172.996582,80.166061 
z"/>
<path fill="#2B17FF" opacity="1.000000" stroke="none" 
	d="
M366.535034,80.097610 
	C362.646088,83.286270 358.466095,86.690796 353.902924,89.465034 
	C345.111115,94.810112 336.060486,99.728088 327.222443,104.999687 
	C325.608978,105.962067 324.496033,107.763596 322.611328,109.574387 
	C308.714874,109.925529 295.359131,109.880028 282.010498,109.470985 
	C283.376556,107.400894 284.396362,105.125504 286.149567,104.080284 
	C297.398682,97.373886 308.843323,90.996063 320.125824,84.344246 
	C321.694641,83.419334 322.724854,81.580849 324.004395,80.165268 
	C338.026520,80.119759 352.048706,80.074257 366.535034,80.097610 
z"/>
<path fill="#AB16FF" opacity="1.000000" stroke="none" 
	d="
M105.996788,80.165619 
	C114.016373,80.121490 122.035957,80.077362 130.443970,80.430344 
	C129.842087,81.894958 129.033798,83.270370 127.832298,83.980713 
	C119.112671,89.135841 110.197792,93.969177 101.583801,99.291313 
	C96.489944,102.438538 91.832153,106.291534 86.516327,109.896469 
	C79.107300,109.965790 72.160202,109.965790 65.160767,109.965790 
	C65.033798,112.705109 64.934349,114.850792 64.494034,117.069016 
	C59.917938,119.441185 55.705585,121.784248 51.441578,124.029205 
	C46.333244,126.718712 41.180828,129.324478 36.042366,131.510315 
	C36.052818,127.694374 36.068405,124.334610 36.453140,120.960281 
	C38.959671,120.087944 41.233288,119.468254 43.213161,118.335251 
	C61.169319,108.059738 79.117737,97.768738 96.954521,87.288414 
	C100.232117,85.362610 102.995857,82.562279 105.996788,80.165619 
z"/>
<path fill="#4F16FF" opacity="1.000000" stroke="none" 
	d="
M239.997650,80.166580 
	C250.020752,80.120857 260.043854,80.075134 270.425781,80.410156 
	C269.679840,81.757507 268.696960,82.934074 267.450897,83.657318 
	C257.888000,89.207870 248.212067,94.565826 238.701019,100.202591 
	C233.665436,103.186951 228.888962,106.608521 223.531708,109.901672 
	C213.044144,109.924835 203.020370,109.879028 193.106689,109.520142 
	C193.663177,108.732620 194.027588,108.116058 194.567886,107.804497 
	C208.325699,99.871048 222.123642,92.006790 235.845566,84.012009 
	C237.436401,83.085152 238.623413,81.465195 239.997650,80.166580 
z"/>
<path fill="#C815FF" opacity="1.000000" stroke="none" 
	d="
M35.166176,111.994926 
	C35.436478,104.921501 35.526535,97.835022 36.037632,90.779037 
	C36.405582,85.699211 43.790268,79.993950 49.609203,79.982750 
	C62.761997,79.957436 75.914932,80.006233 89.452911,80.421349 
	C88.384659,82.107269 87.096321,83.678925 85.451393,84.640762 
	C74.035240,91.316124 62.611851,97.985336 51.047874,104.398849 
	C45.925343,107.239861 40.470287,109.481308 35.166176,111.994926 
z"/>
<path fill="#4317FF" opacity="1.000000" stroke="none" 
	d="
M223.995514,109.832703 
	C228.888962,106.608521 233.665436,103.186951 238.701019,100.202591 
	C248.212067,94.565826 257.888000,89.207870 267.450897,83.657318 
	C268.696960,82.934074 269.679840,81.757507 270.889648,80.478973 
	C279.685608,80.121216 288.376587,80.075401 297.455048,80.427429 
	C296.706451,81.972740 295.752106,83.430855 294.405640,84.218735 
	C283.225616,90.760605 271.910522,97.073746 260.789673,103.712944 
	C258.222290,105.245697 256.244781,107.766571 253.531998,109.901474 
	C243.377274,109.924377 233.686401,109.878540 223.995514,109.832703 
z"/>
<path fill="#3717FF" opacity="1.000000" stroke="none" 
	d="
M253.995834,109.832733 
	C256.244781,107.766571 258.222290,105.245697 260.789673,103.712944 
	C271.910522,97.073746 283.225616,90.760605 294.405640,84.218735 
	C295.752106,83.430855 296.706451,81.972740 297.918945,80.496162 
	C306.355133,80.120720 314.714905,80.074371 323.539551,80.096649 
	C322.724854,81.580849 321.694641,83.419334 320.125824,84.344246 
	C308.843323,90.996063 297.398682,97.373886 286.149567,104.080284 
	C284.396362,105.125504 283.376556,107.400894 281.545776,109.539581 
	C272.047882,109.925400 263.021851,109.879066 253.995834,109.832733 
z"/>
<path fill="#5C16FF" opacity="1.000000" stroke="none" 
	d="
M239.533600,80.097900 
	C238.623413,81.465195 237.436401,83.085152 235.845566,84.012009 
	C222.123642,92.006790 208.325699,99.871048 194.567886,107.804497 
	C194.027588,108.116058 193.663177,108.732620 192.642822,109.588821 
	C185.369873,109.923042 178.670898,109.875496 171.971909,109.827950 
	C175.118240,107.312370 178.030884,104.407364 181.454086,102.353165 
	C192.357895,95.809990 203.462738,89.602402 214.451935,83.199936 
	C215.385437,82.656059 216.036469,81.627312 216.895447,80.497688 
	C224.337952,80.124115 231.703751,80.076668 239.533600,80.097900 
z"/>
<path fill="#8616FF" opacity="1.000000" stroke="none" 
	d="
M172.532516,80.097557 
	C170.067764,82.409470 167.325714,84.967049 164.176285,86.839378 
	C153.229324,93.347313 142.120956,99.583344 131.135208,106.027176 
	C129.937057,106.729965 129.135803,108.109444 127.607956,109.572617 
	C120.041794,109.924477 113.018143,109.878777 106.024323,109.487206 
	C107.519615,107.691460 108.763824,105.865250 110.486336,104.852631 
	C121.860962,98.165764 133.379166,91.722916 144.744202,85.020157 
	C146.751312,83.836418 148.258774,81.805443 149.996964,80.165710 
	C157.354126,80.120155 164.711288,80.074600 172.532516,80.097557 
z"/>
<path fill="#B915FF" opacity="1.000000" stroke="none" 
	d="
M35.101128,112.249481 
	C40.470287,109.481308 45.925343,107.239861 51.047874,104.398849 
	C62.611851,97.985336 74.035240,91.316124 85.451393,84.640762 
	C87.096321,83.678925 88.384659,82.107269 89.916565,80.491821 
	C95.020897,80.118935 100.046692,80.072044 105.534637,80.095383 
	C102.995857,82.562279 100.232117,85.362610 96.954521,87.288414 
	C79.117737,97.768738 61.169319,108.059738 43.213161,118.335251 
	C41.233288,119.468254 38.959671,120.087944 36.433544,120.540527 
	C35.752731,117.761063 35.460663,115.386780 35.168594,113.012505 
	C35.124420,112.843010 35.080246,112.673515 35.101128,112.249481 
z"/>
<path fill="#9616FF" opacity="1.000000" stroke="none" 
	d="
M149.533295,80.096619 
	C148.258774,81.805443 146.751312,83.836418 144.744202,85.020157 
	C133.379166,91.722916 121.860962,98.165764 110.486336,104.852631 
	C108.763824,105.865250 107.519615,107.691460 105.560913,109.556427 
	C99.037865,109.923386 93.008072,109.875275 86.978271,109.827164 
	C91.832153,106.291534 96.489944,102.438538 101.583801,99.291313 
	C110.197792,93.969177 119.112671,89.135841 127.832298,83.980713 
	C129.033798,83.270370 129.842087,81.894958 130.906952,80.499283 
	C137.010880,80.123245 143.040253,80.075386 149.533295,80.096619 
z"/>
<path fill="#8616FF" opacity="1.000000" stroke="none" 
	d="
M35.099602,113.475357 
	C35.460663,115.386780 35.752731,117.761063 36.064396,120.555092 
	C36.068405,124.334610 36.052818,127.694374 36.026752,131.977631 
	C36.016273,137.070160 36.016273,141.239197 36.016273,146.429626 
	C39.140255,144.770370 40.872692,143.857849 42.598198,142.932404 
	C50.011505,138.956467 57.422771,134.976730 64.908340,131.458038 
	C64.932495,136.277039 64.883080,140.636368 64.492859,145.067841 
	C59.242332,147.851593 54.581974,151.255661 49.371464,153.131943 
	C38.222401,157.146622 33.522003,164.333298 36.033794,176.488647 
	C36.034367,185.307449 36.038898,193.658951 36.027802,202.473938 
	C36.032757,207.295563 36.053341,211.653717 36.053783,216.470917 
	C36.016411,220.602737 35.999180,224.275528 35.779762,227.957031 
	C35.577579,227.965729 35.173038,227.978470 35.173038,227.978470 
	C35.125561,189.965057 35.078087,151.951630 35.099602,113.475357 
z"/>
<path fill="#0117FF" opacity="1.000000" stroke="none" 
	d="
M35.102924,228.443756 
	C35.173038,227.978470 35.577579,227.965729 35.793427,228.335037 
	C36.040691,229.459427 36.072113,230.214493 36.068962,231.440277 
	C36.048168,237.934113 36.061939,243.957214 36.053989,250.449646 
	C36.040913,257.607574 36.049553,264.296173 36.042519,271.454163 
	C36.031437,283.609253 36.036026,295.294922 36.040615,306.980621 
	C35.829254,313.760132 35.617897,320.539673 35.145798,327.638916 
	C34.934311,294.942139 34.983559,261.925568 35.102924,228.443756 
z"/>
<path fill="#000000" opacity="1.000000" stroke="none" 
	d="
M64.833664,144.995697 
	C64.883080,140.636368 64.932495,136.277039 64.977585,130.997711 
	C64.927147,125.717308 64.881020,121.356888 64.834900,116.996468 
	C64.934349,114.850792 65.033798,112.705109 65.160767,109.965790 
	C72.160202,109.965790 79.107300,109.965790 86.516327,109.896477 
	C93.008072,109.875275 99.037865,109.923386 105.531075,109.902283 
	C113.018143,109.878777 120.041794,109.924477 127.528992,109.901352 
	C142.344711,109.876076 156.696899,109.919624 171.510498,109.895561 
	C178.670898,109.875496 185.369873,109.923042 192.532730,109.901901 
	C203.020370,109.879028 213.044144,109.924835 223.531708,109.901672 
	C233.686401,109.878540 243.377274,109.924377 253.531998,109.901474 
	C263.021851,109.879066 272.047882,109.925400 281.538635,109.903137 
	C295.359131,109.880028 308.714874,109.925529 322.534790,109.902161 
	C339.024384,109.879242 355.049774,109.925194 371.540100,109.902542 
	C397.455383,109.833923 422.905823,109.833923 449.029053,109.833923 
	C449.029053,113.227417 449.029053,116.159111 449.028503,120.008896 
	C449.074158,141.284821 449.120392,161.642639 449.166626,182.000458 
	C449.111084,217.155014 449.049896,252.309555 449.002899,287.464111 
	C448.985107,300.766632 449.000000,314.069214 449.000000,328.028076 
	C367.418335,328.028076 286.173279,328.028076 204.464050,328.097321 
	C164.975830,328.120331 125.951775,328.074066 86.463516,328.097229 
	C79.207970,328.166595 72.416634,328.166595 64.972656,328.166595 
	C64.972656,316.423401 64.972656,305.174591 64.971542,292.997620 
	C64.924728,280.379456 64.879044,268.689453 64.902267,256.535400 
	C64.925339,249.380936 64.879501,242.690521 64.902374,235.536072 
	C64.925163,228.713852 64.879257,222.355652 64.902115,215.535919 
	C64.924919,210.382050 64.878967,205.689713 64.901810,200.538727 
	C64.923981,196.049744 64.877350,192.019455 64.899658,187.525696 
	C64.924706,178.377991 64.880821,169.693771 64.904045,160.545639 
	C64.925331,155.053055 64.879501,150.024384 64.833664,144.995697 
M186.029816,169.917526 
	C187.075546,175.277573 188.121277,180.637634 189.030441,186.824188 
	C190.742645,197.214706 192.454834,207.605209 194.323807,218.781494 
	C196.938110,234.520630 199.552429,250.259766 202.313232,266.767517 
	C202.536240,267.367523 202.912094,267.955811 202.959305,268.569336 
	C203.663895,277.723267 209.219070,282.997711 218.237961,282.998535 
	C256.340271,283.001953 294.442596,283.004944 332.544922,282.994873 
	C339.112030,282.993134 344.191193,279.417297 345.988190,272.983917 
	C347.601196,267.209045 348.787750,261.307129 349.981964,255.424652 
	C353.867126,236.286957 357.753784,217.148758 361.465698,197.977051 
	C363.134247,189.359070 364.390137,180.661194 365.968262,171.232758 
	C364.233704,161.530655 357.984741,158.184326 350.946289,158.091705 
	C333.965271,157.868225 316.978088,158.111938 299.066284,158.029968 
	C284.788757,158.020264 270.510284,157.905380 256.234100,158.039719 
	C247.465576,158.122208 240.906723,165.201538 240.957870,173.696289 
	C241.002960,181.182983 248.531754,188.806473 257.921326,187.972397 
	C282.909607,187.995941 307.897919,188.019485 332.977173,188.861115 
	C328.612915,210.509903 324.248627,232.158691 319.846558,253.995010 
	C290.452118,253.995010 261.492920,254.013046 232.534149,253.911163 
	C231.631653,253.907990 230.733490,252.664261 229.967789,251.172699 
	C228.976776,245.233368 228.035202,239.285263 226.983475,233.356705 
	C225.305099,223.895844 223.553497,214.447968 221.969543,204.156326 
	C221.312210,200.000366 220.729324,195.830948 219.980789,191.691467 
	C218.725281,184.748260 217.364288,177.824127 216.006668,170.032089 
	C214.948868,164.021301 213.891052,158.010529 212.969833,151.225677 
	C212.177689,149.175751 211.782974,146.831299 210.521530,145.129181 
	C206.126541,139.198883 199.795151,138.362900 192.070465,139.028915 
	C182.277115,139.018173 172.483566,138.967117 162.690460,139.011398 
	C156.542389,139.039185 151.016693,142.669586 149.115967,147.756912 
	C146.620148,154.436905 147.978378,160.582260 153.308243,165.739914 
	C157.437271,166.826614 161.516571,168.517105 165.706665,168.862091 
	C172.418121,169.414642 179.203018,169.075363 186.029816,169.917526 
M301.415131,315.934113 
	C304.706482,319.535461 308.641876,321.282013 313.665527,321.067383 
	C320.141235,320.790649 326.638031,321.042450 333.125092,320.988831 
	C340.767273,320.925629 347.054749,314.459717 346.999725,306.811859 
	C346.940674,298.598236 340.854950,292.072968 333.114471,292.010498 
	C326.793732,291.959473 320.472229,291.999237 314.151062,292.000153 
	C300.648773,292.002136 294.225891,303.332886 301.415131,315.934113 
M250.147842,313.298889 
	C250.450165,311.893219 250.769836,310.490997 251.051971,309.081268 
	C252.920074,299.747314 246.912598,292.156403 237.437256,292.019623 
	C230.620972,291.921234 223.801895,291.964783 216.984482,292.009552 
	C209.358795,292.059570 203.046082,298.491791 203.000076,306.178528 
	C202.950348,314.487427 208.856537,320.908295 216.732605,320.985748 
	C223.549652,321.052826 230.369492,320.908386 237.185089,321.028259 
	C242.825531,321.127502 246.968201,318.855286 250.147842,313.298889 
z"/>
<path fill="#000000" opacity="1.000000" stroke="none" 
	d="
M95.464348,404.097412 
	C86.512802,404.111115 77.990089,403.542572 69.546440,404.123383 
	C57.650867,404.941650 47.263206,394.819702 46.151539,382.925262 
	C45.398865,374.871948 46.007908,366.691406 46.007908,357.971710 
	C90.285873,357.971710 134.178726,357.971710 178.535767,357.902527 
	C187.145508,357.833374 195.291061,357.833374 203.305511,357.833374 
	C207.191406,371.054199 213.405334,372.163483 223.296341,372.068237 
	C245.780441,371.851746 268.268066,372.000000 290.754242,372.000000 
	C303.454987,372.000000 306.183472,370.111145 310.640442,358.177917 
	C362.870728,358.177917 415.128815,358.177917 468.419922,358.177917 
	C467.946869,367.722198 468.229004,377.175049 466.827545,386.371246 
	C465.174377,397.219086 455.844208,403.997803 444.713989,403.998108 
	C330.617432,404.001190 216.520859,403.999878 102.424301,404.001190 
	C100.259026,404.001221 98.093750,404.018768 95.464348,404.097412 
z"/>
<path fill="#0817FF" opacity="1.000000" stroke="none" 
	d="
M449.505676,181.929810 
	C449.120392,161.642639 449.074158,141.284821 449.097290,120.462708 
	C456.498383,116.078056 463.825439,112.148956 471.164795,108.242981 
	C473.183105,107.168846 475.238190,106.163826 477.626190,105.060745 
	C477.983551,123.459450 477.914703,141.925110 478.062866,160.389023 
	C478.092621,164.095200 477.202881,166.496002 473.661682,168.353577 
	C465.583954,172.590897 457.767365,177.326187 449.505676,181.929810 
z"/>
<path fill="#2117FF" opacity="1.000000" stroke="none" 
	d="
M64.833344,256.999451 
	C64.879044,268.689453 64.924728,280.379456 64.901779,292.533386 
	C57.718483,296.667053 50.619606,300.367859 43.479664,303.987701 
	C41.304195,305.090607 39.015644,305.970490 36.409752,306.966553 
	C36.036026,295.294922 36.031437,283.609253 36.410667,271.438721 
	C39.759254,269.591705 42.768211,268.317261 45.679745,266.849518 
	C52.090374,263.617950 58.451824,260.288788 64.833344,256.999451 
z"/>
<path fill="#9616FF" opacity="1.000000" stroke="none" 
	d="
M64.494026,117.069016 
	C64.881020,121.356888 64.927147,125.717308 64.904022,130.538055 
	C57.422771,134.976730 50.011505,138.956467 42.598198,142.932404 
	C40.872692,143.857849 39.140255,144.770370 36.016273,146.429626 
	C36.016273,141.239197 36.016273,137.070160 36.031883,132.433807 
	C41.180828,129.324478 46.333244,126.718712 51.441578,124.029205 
	C55.705585,121.784248 59.917938,119.441185 64.494026,117.069016 
z"/>
<path fill="#5C16FF" opacity="1.000000" stroke="none" 
	d="
M64.836929,161.009521 
	C64.880821,169.693771 64.924706,178.377991 64.536865,187.549316 
	C61.875710,189.042175 59.604996,189.966293 57.424454,191.068771 
	C50.279785,194.681076 43.167912,198.358231 36.043430,202.010468 
	C36.038898,193.658951 36.034367,185.307449 36.382179,176.419571 
	C38.659817,174.923416 40.609146,174.008667 42.506168,172.995911 
	C49.958702,169.017212 57.394753,165.007629 64.836929,161.009521 
z"/>
<path fill="#7416FF" opacity="1.000000" stroke="none" 
	d="
M64.904037,160.545624 
	C57.394753,165.007629 49.958702,169.017212 42.506168,172.995911 
	C40.609146,174.008667 38.659817,174.923416 36.386139,175.952286 
	C33.522003,164.333298 38.222401,157.146622 49.371464,153.131943 
	C54.581974,151.255661 59.242332,147.851593 64.492859,145.067841 
	C64.879501,150.024384 64.925331,155.053055 64.904037,160.545624 
z"/>
<path fill="#4317FF" opacity="1.000000" stroke="none" 
	d="
M64.833015,200.997391 
	C64.878967,205.689713 64.924919,210.382050 64.545670,215.558655 
	C63.066143,216.490646 61.966667,216.855179 60.964642,217.399185 
	C52.667408,221.903870 44.388191,226.441727 36.103531,230.969574 
	C36.072113,230.214493 36.040691,229.459427 35.995605,228.326324 
	C35.999180,224.275528 36.016411,220.602737 36.399391,216.399857 
	C39.422348,214.523941 42.104801,213.225433 44.731823,211.823074 
	C51.445393,208.239182 58.134258,204.609024 64.833015,200.997391 
z"/>
<path fill="#4F16FF" opacity="1.000000" stroke="none" 
	d="
M64.901810,200.538727 
	C58.134258,204.609024 51.445393,208.239182 44.731823,211.823074 
	C42.104801,213.225433 39.422348,214.523941 36.419533,215.940826 
	C36.053341,211.653717 36.032757,207.295563 36.027802,202.473938 
	C43.167912,198.358231 50.279785,194.681076 57.424454,191.068771 
	C59.604996,189.966293 61.875710,189.042175 64.467926,188.012772 
	C64.877350,192.019455 64.923981,196.049744 64.901810,200.538727 
z"/>
<path fill="#2B17FF" opacity="1.000000" stroke="none" 
	d="
M64.902260,256.535400 
	C58.451824,260.288788 52.090374,263.617950 45.679745,266.849518 
	C42.768211,268.317261 39.759254,269.591705 36.426338,270.969299 
	C36.049553,264.296173 36.040913,257.607574 36.430611,250.451111 
	C40.366970,248.335861 43.949673,246.777115 47.432953,245.021149 
	C53.266571,242.080338 59.036781,239.013763 64.833672,236.000107 
	C64.879501,242.690521 64.925339,249.380936 64.902260,256.535400 
z"/>
<path fill="#3717FF" opacity="1.000000" stroke="none" 
	d="
M64.902374,235.536072 
	C59.036781,239.013763 53.266571,242.080338 47.432953,245.021149 
	C43.949673,246.777115 40.366970,248.335861 36.452332,249.981781 
	C36.061939,243.957214 36.048168,237.934113 36.068962,231.440277 
	C44.388191,226.441727 52.667408,221.903870 60.964642,217.399185 
	C61.966667,216.855179 63.066143,216.490646 64.476906,216.020203 
	C64.879257,222.355652 64.925163,228.713852 64.902374,235.536072 
z"/>
<path fill="#0717FF" opacity="1.000000" stroke="none" 
	d="
M229.833298,251.998886 
	C230.733490,252.664261 231.631653,253.907990 232.534149,253.911163 
	C261.492920,254.013046 290.452118,253.995010 319.846558,253.995010 
	C324.248627,232.158691 328.612915,210.509903 333.301025,188.381805 
	C338.338531,185.539322 343.039886,183.151245 347.768860,180.819214 
	C353.778656,177.855576 359.810791,174.937363 365.833313,171.999573 
	C364.390137,180.661194 363.134247,189.359070 361.465698,197.977051 
	C357.753784,217.148758 353.867126,236.286957 349.981964,255.424652 
	C348.787750,261.307129 347.601196,267.209045 345.988190,272.983917 
	C344.191193,279.417297 339.112030,282.993134 332.544922,282.994873 
	C294.442596,283.004944 256.340271,283.001953 218.237961,282.998535 
	C209.219070,282.997711 203.663895,277.723267 202.959305,268.569336 
	C202.912094,267.955811 202.536240,267.367523 202.600815,266.362030 
	C204.521637,265.236511 206.205566,264.612335 207.779495,263.780121 
	C215.147369,259.884430 222.484909,255.931412 229.833298,251.998886 
z"/>
<path fill="#1217FF" opacity="1.000000" stroke="none" 
	d="
M365.900787,171.616165 
	C359.810791,174.937363 353.778656,177.855576 347.768860,180.819214 
	C343.039886,183.151245 338.338531,185.539322 333.255554,187.972778 
	C307.897919,188.019485 282.909607,187.995941 257.488068,187.554840 
	C258.158508,186.029907 259.089691,184.630600 260.392761,183.860611 
	C272.474640,176.721252 284.659088,169.754639 296.697571,162.543869 
	C298.149200,161.674362 298.911560,159.654144 299.993408,158.167267 
	C316.978088,158.111938 333.965271,157.868225 350.946289,158.091705 
	C357.984741,158.184326 364.233704,161.530655 365.900787,171.616165 
z"/>
<path fill="#1217FF" opacity="1.000000" stroke="none" 
	d="
M229.900543,251.585785 
	C222.484909,255.931412 215.147369,259.884430 207.779495,263.780121 
	C206.205566,264.612335 204.521637,265.236511 202.527573,265.977722 
	C199.552429,250.259766 196.938110,234.520630 194.622986,218.384125 
	C196.890991,217.246323 198.942413,216.671204 200.813904,215.736008 
	C207.852005,212.219116 214.831436,208.584869 221.832855,204.994598 
	C223.553497,214.447968 225.305099,223.895844 226.983475,233.356705 
	C228.035202,239.285263 228.976776,245.233368 229.900543,251.585785 
z"/>
<path fill="#0117FF" opacity="1.000000" stroke="none" 
	d="
M301.160645,315.649445 
	C294.225891,303.332886 300.648773,292.002136 314.151062,292.000153 
	C320.472229,291.999237 326.793732,291.959473 333.114471,292.010498 
	C340.854950,292.072968 346.940674,298.598236 346.999725,306.811859 
	C347.054749,314.459717 340.767273,320.925629 333.125092,320.988831 
	C326.638031,321.042450 320.141235,320.790649 313.665527,321.067383 
	C308.641876,321.282013 304.706482,319.535461 301.160645,315.649445 
z"/>
<path fill="#0717FF" opacity="1.000000" stroke="none" 
	d="
M249.897125,313.599060 
	C246.968201,318.855286 242.825531,321.127502 237.185089,321.028259 
	C230.369492,320.908386 223.549652,321.052826 216.732605,320.985748 
	C208.856537,320.908295 202.950348,314.487427 203.000076,306.178528 
	C203.046082,298.491791 209.358795,292.059570 216.984482,292.009552 
	C223.801895,291.964783 230.620972,291.921234 237.437256,292.019623 
	C246.912598,292.156403 252.920074,299.747314 251.051971,309.081268 
	C250.769836,310.490997 250.450165,311.893219 249.897125,313.599060 
z"/>
<path fill="#2117FF" opacity="1.000000" stroke="none" 
	d="
M299.529846,158.098618 
	C298.911560,159.654144 298.149200,161.674362 296.697571,162.543869 
	C284.659088,169.754639 272.474640,176.721252 260.392761,183.860611 
	C259.089691,184.630600 258.158508,186.029907 257.023560,187.484985 
	C248.531754,188.806473 241.002960,181.182983 240.957870,173.696289 
	C240.906723,165.201538 247.465576,158.122208 256.234100,158.039719 
	C270.510284,157.905380 284.788757,158.020264 299.529846,158.098618 
z"/>
<path fill="#2117FF" opacity="1.000000" stroke="none" 
	d="
M221.901199,204.575470 
	C214.831436,208.584869 207.852005,212.219116 200.813904,215.736008 
	C198.942413,216.671204 196.890991,217.246323 194.544586,217.991241 
	C192.454834,207.605209 190.742645,197.214706 189.462280,186.389420 
	C198.611969,180.933762 207.329819,175.912872 216.047668,170.891968 
	C217.364288,177.824127 218.725281,184.748260 219.980789,191.691467 
	C220.729324,195.830948 221.312210,200.000366 221.901199,204.575470 
z"/>
<path fill="#3717FF" opacity="1.000000" stroke="none" 
	d="
M192.998795,139.166321 
	C199.795151,138.362900 206.126541,139.198883 210.521530,145.129181 
	C211.782974,146.831299 212.177689,149.175751 212.559311,151.684372 
	C204.477905,156.402100 196.753326,160.569489 189.184509,165.002777 
	C187.785934,165.821945 187.016617,167.715408 185.956863,169.113037 
	C179.203018,169.075363 172.418121,169.414642 165.706665,168.862091 
	C161.516571,168.517105 157.437271,166.826614 153.312302,165.129608 
	C164.657043,157.786850 176.038925,151.122040 187.302185,144.262482 
	C189.441956,142.959305 191.112000,140.884872 192.998795,139.166321 
z"/>
<path fill="#4317FF" opacity="1.000000" stroke="none" 
	d="
M192.534637,139.097626 
	C191.112000,140.884872 189.441956,142.959305 187.302185,144.262482 
	C176.038925,151.122040 164.657043,157.786850 153.133392,164.812805 
	C147.978378,160.582260 146.620148,154.436905 149.115967,147.756912 
	C151.016693,142.669586 156.542389,139.039185 162.690460,139.011398 
	C172.483566,138.967117 182.277115,139.018173 192.534637,139.097626 
z"/>
<path fill="#2B17FF" opacity="1.000000" stroke="none" 
	d="
M185.993347,169.515289 
	C187.016617,167.715408 187.785934,165.821945 189.184509,165.002777 
	C196.753326,160.569489 204.477905,156.402100 212.491013,152.071411 
	C213.891052,158.010529 214.948868,164.021301 216.027161,170.462036 
	C207.329819,175.912872 198.611969,180.933762 189.530563,185.976166 
	C188.121277,180.637634 187.075546,175.277573 185.993347,169.515289 
z"/>
</svg>